# xmcd
#
# Track frame offsets: 
#        150
#        15501
#        29793
#        44810
#        59818
#        72925
#        87540
#        101920
#        115587
#        128609
#        141047
#        153649
#        165766
#        177373
#        189635
#        202913
#        213163
#        226448
#        239112
#        252540
#        266541
#        279050
#        292712
#
# Disc length: 4080 seconds
#
# Revision: 0
# Processed by: cddbd v1.5.2PL0 Copyright (c) Steve Scherf et al.
# Submitted via: ExactAudioCopyFreeDBPlugin 1.0
#
DISCID=540fee17
DTITLE=Rev. J. C. Burnett - Complete Recordings Vol. 2 (1927-1945)
DYEAR=1997
DGENRE=Gospel
TTITLE0=The Angel Done Gone Down
TTITLE1=Cry, Till Jesus Comes
TTITLE2=The Gambler's Doom
TTITLE3=Will the Circle Be Unbroken
TTITLE4=Rejected Stone
TTITLE5=You Are Sleeping in a Dangerous Time
TTITLE6=I Don't Want No Trouble at the River
TTITLE7=Sit Down, Servant
TTITLE8=Put Your Trust in Jesus
TTITLE9=Amazing Grace
TTITLE10=Chariot's Coming Down
TTITLE11=When the Evening Sun Goes Down
TTITLE12=Afterwhile Some Sweet Day
TTITLE13=Speed On! Hell Is Waiting for You
TTITLE14=Jonah in the Belly of the Whale
TTITLE15=Downfall of Nebuchadnezzar
TTITLE16=Balshazzer
TTITLE17=God Will Deliver His People
TTITLE18=What Ails Thee?
TTITLE19=I'm Not Ashamed of the Gospel of Christ
TTITLE20=Prayer Was Made Without Ceasing of the Church
TTITLE21=Wages of Sin Is Death
TTITLE22=War in Heaven
EXTD=
EXTT0=
EXTT1=
EXTT2=
EXTT3=
EXTT4=
EXTT5=
EXTT6=
EXTT7=
EXTT8=
EXTT9=
EXTT10=
EXTT11=
EXTT12=
EXTT13=
EXTT14=
EXTT15=
EXTT16=
EXTT17=
EXTT18=
EXTT19=
EXTT20=
EXTT21=
EXTT22=
PLAYORDER=
